<svg aria-hidden="true" style="position: absolute; width: 0; height: 0; overflow: hidden;" version="1.1"
    xmlns="http://www.w3.org/2000/svg"
    xmlns:xlink="http://www.w3.org/1999/xlink">
    <defs>
        <symbol id="icon-button-play" viewBox="0 0 12 12">
            <title>button play</title>
            <g class="nc-icon-wrapper">
                <path d="M11.741,5.562l-10-5.5a.5.5,0,0,0-.5.008A.5.5,0,0,0,1,.5v11a.5.5,0,0,0,.246.43A.491.491,0,0,0,1.5,12a.5.5,0,0,0,.241-.062l10-5.5a.5.5,0,0,0,0-.876Z" fill="currentColor" stroke="none"></path>
            </g>
        </symbol>
        <symbol id="icon-globe" viewBox="0 0 24 24">
            <title>globe</title>
            <g class="nc-icon-wrapper" stroke-width="2">
                <line fill="none" stroke="currentColor" x1="12" y1="1" x2="12" y2="23"></line>
                <line fill="none" stroke="currentColor" x1="1" y1="12" x2="23" y2="12"></line>
                <ellipse fill="none" stroke="currentColor" cx="12" cy="12" rx="5.5" ry="11"></ellipse>
                <circle fill="none" stroke="currentColor" cx="12" cy="12" r="11"></circle>
            </g>
        </symbol>
        <symbol id="icon-phone-24" viewBox="0 0 24 24">
            <title>phone</title>
            <g class="nc-icon-wrapper" stroke-width="2">
                <path d="M15.308,14.188,13.167,16.3a17.378,17.378,0,0,1-3.092-2.375A17.607,17.607,0,0,1,7.7,10.832L9.81,8.691A.918.918,0,0,0,10,7.686L7.8,2.558a.918.918,0,0,0-1.078-.525L2.688,3.1A.919.919,0,0,0,2,4.016,19.4,19.4,0,0,0,7.49,16.509,19.4,19.4,0,0,0,19.986,22a.915.915,0,0,0,.917-.687l1.066-4.036a.917.917,0,0,0-.524-1.078L16.316,14A.917.917,0,0,0,15.308,14.188Z" fill="none" stroke="currentColor"></path>
            </g>
        </symbol>
        <symbol id="icon-send-24" viewBox="0 0 24 24">
            <title>send</title>
            <g class="nc-icon-wrapper" stroke-width="2">
                <polyline fill="none" stroke="currentColor" points="22,2 7,14 7,21 10.6,16.7 "></polyline>
                <polygon fill="none" stroke="currentColor" points="2,10 22,2 18,22 "></polygon>
            </g>
        </symbol>
        <symbol id="icon-c-question-24" viewBox="0 0 24 24">
            <title>c question</title>
            <g class="nc-icon-wrapper" stroke-width="2">
                <circle cx="12" cy="12" r="11" fill="none" stroke="currentColor"></circle>
                <circle cx="12" cy="18" r="1" stroke="currentColor"></circle>
                <path d="M9.853,6.56c1.98-.875,4.542-.771,5.417.645s.271,3.063-1.229,4.334S12,13.5,12,14.5" fill="none" stroke="currentColor"></path>
            </g>
        </symbol>
        <symbol id="icon-discount-24" viewBox="0 0 24 24">
            <title>discount 2</title>
            <g class="nc-icon-wrapper" stroke-width="2">
                <polygon fill="none" stroke="currentColor" points="19,15 22,12 19,9 19,5 15,5 12,2 9,5 5,5 5,9 2,12 5,15 5,19 9,19 12,22 15,19 19,19 "></polygon>
                <line fill="none" x1="15" y1="9" x2="9" y2="15" stroke="currentColor"></line>
                <circle cx="9.5" cy="9.5" r="1.5" stroke="currentColor"></circle>
                <circle cx="14.5" cy="14.5" r="1.5" stroke="currentColor"></circle>
            </g>
        </symbol>
        <symbol id="icon-read-24" viewBox="0 0 24 24">
            <title>read</title>
            <g class="nc-icon-wrapper" stroke-width="2">
                <line fill="none" stroke="currentColor" x1="12" y1="5" x2="12" y2="22"></line>
                <polygon fill="none" stroke="currentColor" points="1,2 12,5 23,2 23,19 12,22 1,19 "></polygon>
            </g>
        </symbol>
        <symbol id="icon-compass-24" viewBox="0 0 24 24">
            <title>compass 05</title>
            <g class="nc-icon-wrapper">
                <path fill="currentColor"  d="M12,24C5.383,24,0,18.617,0,12S5.383,0,12,0s12,5.383,12,12S18.617,24,12,24z M12,2C6.486,2,2,6.486,2,12 s4.486,10,10,10s10-4.486,10-10S17.514,2,12,2z" ></path>
                <path fill="currentColor"  d="M9.238,9.238l-4.142,9.666l9.666-4.142l4.142-9.666L9.238,9.238z M8.904,15.096l1.858-4.334 l2.477,2.477L8.904,15.096z"></path>
            </g>
        </symbol>
        <symbol id="icon-boat-24" viewBox="0 0 24 24">
            <title>boat</title>
            <g class="nc-icon-wrapper" stroke-width="2">
                <polyline fill="none" stroke="currentColor" points="6,7 6,2 10,2 10,7 "></polyline>
                <polyline fill="none" stroke="currentColor" points="4,11 4,7 16,7 18,11 "></polyline>
                <polyline fill="none" stroke="currentColor" points="4,17 2,11 22,11 19,17 "></polyline>
                <path fill="none" stroke="currentColor" d="M1,18 c0,2.2,1.8,4,4,4c1.5,0,2.8-0.9,3.5-2.1c0.7,1.2,2,2.1,3.5,2.1s2.8-0.9,3.5-2.1c0.7,1.2,2,2.1,3.5,2.1c2.2,0,4-1.8,4-4"></path>
            </g>
        </symbol>

        <symbol id="icon-stopwatch" viewBox="0 0 32 32">
            <title>stopwatch</title>
            <g class="nc-icon-wrapper" stroke-width="2">
                <polyline points="16 13 16 19 22 19" fill="none" stroke="currentColor"></polyline>
                <circle cx="16" cy="19" r="12" fill="none" stroke="currentColor"></circle>
                <line x1="12" y1="1" x2="20" y2="1" fill="none" stroke="currentColor"></line>
                <line x1="16" y1="1" x2="16" y2="4" fill="none" stroke="currentColor"></line>
                <line x1="26" y1="7" x2="28" y2="9" fill="none" stroke="currentColor"></line>
            </g>
        </symbol>
        <symbol id="icon-diamond" viewBox="0 0 32 32">
            <title>diamond</title>
            <g class="nc-icon-wrapper" stroke-width="2">
                <line fill="none" stroke="currentColor" x1="2" y1="11" x2="30" y2="11"></line>
                <polyline fill="none"  stroke="currentColor" points="16,29 21,11 16,3 "></polyline>
                <polyline fill="none" stroke="currentColor" points="16,3 11,11 16,29 "></polyline>
                <line fill="none" stroke="currentColor" x1="7" y1="3" x2="11" y2="11"></line>
                <line fill="none" stroke="currentColor" x1="25" y1="3" x2="21" y2="11"></line>
                <polygon fill="none" stroke="currentColor" points="30,11 16,29 2,11 7,3 25,3 "></polygon>
            </g>
        </symbol>
        <symbol id="icon-boat-front" viewBox="0 0 32 32">
            <title>boat front</title>
            <g class="nc-icon-wrapper" stroke-width="2">
                <line fill="none" stroke="currentColor" x1="16" y1="13" x2="16" y2="25"></line>
                <path fill="none" stroke="currentColor" d="M1,27 c0,2.209,1.791,4,4,4c1.518,0,2.822-0.855,3.5-2.101C9.178,30.145,10.482,31,12,31s2.822-0.855,3.5-2.101 C16.178,30.145,17.482,31,19,31s2.822-0.855,3.5-2.101C23.178,30.145,24.482,31,26,31c2.209,0,4-1.791,4-4"></path>
                <polyline fill="none" stroke="currentColor" points=" 13,8 13,1 19,1 19,8 "></polyline>
                <polyline fill="none" stroke="currentColor" points="7,18.25 7,8 25,8 25,18.25 "></polyline>
                <polyline fill="none" stroke="currentColor" points="6,26 4,20 16,13 28,20 26,26 "></polyline>
            </g>
        </symbol>
        <symbol id="icon-boat" viewBox="0 0 32 32">
            <title>boat</title>
            <g class="nc-icon-wrapper" stroke-width="2">
                <polyline fill="none" stroke="currentColor" points=" 8,10 8,3 13,3 13,10 "></polyline>
                <polyline fill="none" stroke="currentColor" points="5,16 5,10 22,10 26,16 "></polyline>
                <polyline fill="none" stroke="currentColor" points="5,24 2,16 30,16 25,24 "></polyline>
                <path fill="none" stroke="currentColor" d="M1,25 c0,2.209,1.791,4,4,4c1.518,0,2.822-0.855,3.5-2.101C9.178,28.145,10.482,29,12,29s2.822-0.855,3.5-2.101 C16.178,28.145,17.482,29,19,29s2.822-0.855,3.5-2.101C23.178,28.145,24.482,29,26,29c2.209,0,4-1.791,4-4"></path>
            </g>
        </symbol>
        <symbol id="icon-plane" viewBox="0 0 32 32">
            <title>plane</title>
            <g class="nc-icon-wrapper" stroke-width="2">
                <path d="M14.011,12,9,1.978h3.394a3,3,0,0,1,2.5,1.336L20.557,12" fill="none" stroke="currentColor"></path>
                <path d="M27.3,12H9L5.5,7h-4l2.87,9.84A3,3,0,0,0,7.25,19H14L9,29h3.394a3,3,0,0,0,2.5-1.336L20.543,19H27.5A3.5,3.5,0,0,0,31,15.312,3.633,3.633,0,0,0,27.3,12Z" fill="none" stroke="currentColor"></path>
            </g>
        </symbol>
        <symbol id="icon-ctrl-right" viewBox="0 0 12 12">
            <title>ctrl right</title>
            <g class="nc-icon-wrapper">
                <path d="M4.781.375a1,1,0,0,0-1.562,1.25L6.719,6l-3.5,4.375a1,1,0,0,0,1.562,1.25l4-5a1,1,0,0,0,0-1.25Z" fill="currentColor" stroke="none"></path>
            </g>
        </symbol>
        <symbol id="icon-percent-sign" viewBox="0 0 16 16">
            <title>percent sign</title>
            <g class="nc-icon-wrapper">
                <rect x="-0.211" y="7" width="16.422" height="2" transform="translate(-3.094 10.219) rotate(-56.31)" stroke="none"></rect>
                <path d="M7,4A3,3,0,1,0,4,7,3,3,0,0,0,7,4ZM3,4A1,1,0,1,1,4,5,1,1,0,0,1,3,4Z" fill="currentColor" stroke="none"></path>
                <path d="M12,9a3,3,0,1,0,3,3A3,3,0,0,0,12,9Zm0,4a1,1,0,1,1,1-1A1,1,0,0,1,12,13Z" fill="currentColor" stroke="none"></path>
            </g>
        </symbol>
        <symbol id="icon-star-empty" viewBox="0 0 16 16">
            <title>star empty</title>
            <g class="nc-icon-wrapper">
                <path fill="currentColor" d="M11.86,15.542L8,13.513l-3.86,2.029c-0.727,0.387-1.592-0.235-1.451-1.054l0.737-4.299L0.302,7.145 c-0.594-0.58-0.263-1.587,0.555-1.706l4.316-0.627L7.104,0.9c0.336-0.683,1.457-0.683,1.793,0l1.931,3.911l4.316,0.627 c0.818,0.119,1.148,1.126,0.555,1.706l-3.124,3.045l0.737,4.299C13.453,15.311,12.586,15.924,11.86,15.542z M8.466,11.498 l2.532,1.331l-0.483-2.82c-0.056-0.324,0.052-0.655,0.287-0.885l2.049-1.998L10.02,6.715C9.693,6.668,9.412,6.463,9.267,6.168 L8,3.602L6.733,6.168c-0.146,0.295-0.427,0.5-0.753,0.547L3.149,7.126l2.049,1.998c0.235,0.229,0.343,0.561,0.287,0.885 l-0.483,2.82l2.532-1.331C7.826,11.344,8.174,11.344,8.466,11.498z" stroke="none"></path>
            </g>
        </symbol>
        <symbol id="icon-shopping-tag" viewBox="0 0 16 16">
            <title>shopping tag</title>
            <g class="nc-icon-wrapper">
                <path fill="currentColor" d="M15.7,8.3l-8-8C7.5,0.1,7.3,0,7,0H1C0.4,0,0,0.4,0,1v6c0,0.3,0.1,0.5,0.3,0.7l8,8C8.5,15.9,8.7,16,9,16 s0.5-0.1,0.7-0.3l6-6C16.1,9.3,16.1,8.7,15.7,8.3z M9,13.6l-7-7V2h4.6l7,7L9,13.6z" stroke="none"></path>
                <circle cx="5" cy="5" r="1" stroke="none"></circle>
            </g>
        </symbol>
        <symbol id="icon-energy" viewBox="0 0 16 16">
            <title>energy</title>
            <g class="nc-icon-wrapper">
                <path d="M9.724,6.293S10.47,1.905,7.426,0A5.37,5.37,0,0,1,5.4,3.887C4.1,5.03,1.655,7.6,1.681,10.34A6.285,6.285,0,0,0,5.132,16a3.984,3.984,0,0,1,1.394-2.755A3.253,3.253,0,0,0,7.772,11.06a5.856,5.856,0,0,1,3.1,4.881v.013A5.883,5.883,0,0,0,14.3,10.848c.216-2.574-1.194-6.074-2.445-7.218A6.793,6.793,0,0,1,9.724,6.293Z" fill="currentColor" stroke="none"></path>
            </g>
        </symbol>
        <symbol id="icon-discount-2" viewBox="0 0 16 16">
            <title>discount 2</title>
            <g class="nc-icon-wrapper">
                <polygon fill="none" stroke="currentColor" points="13.5,10 15.5,8 13.5,6 13.5,2.5 10,2.5 8,0.5 6,2.5 2.5,2.5 2.5,6 0.5,8 2.5,10 2.5,13.5 6,13.5 8,15.5 10,13.5 13.5,13.5 "></polygon>
            </g>
        </symbol>
        <symbol id="icon-diamonds-suits" viewBox="0 0 16 16">
            <title>diamonds suits</title>
            <g class="nc-icon-wrapper">
                <path d="M8,16a.5.5,0,0,1-.378-.173l-6.5-7.5a.5.5,0,0,1,0-.654l6.5-7.5a.514.514,0,0,1,.756,0l6.5,7.5a.5.5,0,0,1,0,.654l-6.5,7.5A.5.5,0,0,1,8,16Z" fill="currentColor" stroke="none"></path>
            </g>
        </symbol>
        <symbol id="icon-diamonds-suits-blank" viewBox="0 0 16 16">
            <title>diamonds suits</title>
            <g class="nc-icon-wrapper">
                <polygon points="8 0.5 14.5 8 8 15.5 1.5 8 8 0.5" fill="none" stroke="currentColor"></polygon>
            </g>
        </symbol>
        <symbol id="icon-pin-3-small" viewBox="0 0 16 16">
            <title>pin 3 small</title>
            <g class="nc-icon-wrapper">
                <path fill="currentColor" d="M8,0C4.1,0,1,3.1,1,7c0,1.9,0.7,3.7,2.1,5c0.1,0.1,4.1,3.7,4.2,3.8c0.4,0.3,1,0.3,1.3,0 c0.1-0.1,4.2-3.7,4.2-3.8c1.4-1.3,2.1-3.1,2.1-5C15,3.1,11.9,0,8,0z M8,9C6.9,9,6,8.1,6,7s0.9-2,2-2c1.1,0,2,0.9,2,2S9.1,9,8,9z" stroke="none"></path>
            </g>
        </symbol>
        <symbol id="icon-compass-06" viewBox="0 0 16 16">
            <title>compass 06</title>
            <g class="nc-icon-wrapper">
                <path fill="currentColor" d="M0,14.7l3-11C3.1,3.4,3.4,3.1,3.7,3l11-3c0.7-0.2,1.4,0.5,1.2,1.2l-3,11c-0.1,0.3-0.4,0.6-0.7,0.7l-11,3 C0.5,16.2-0.2,15.5,0,14.7z M4.8,4.8l-2.4,8.8l8.8-2.4l2.4-8.8L4.8,4.8z" stroke="none"></path>
                <circle cx="8" cy="8" r="2" stroke="none"></circle>
            </g>
        </symbol>
        <symbol id="icon-pin-3-outline" viewBox="0 0 16 16">
            <title>pin 3 outline</title>
            <g class="nc-icon-wrapper">
                <path d="M13.5,6c0,4.5-5.5,9.5-5.5,9.5S2.5,10.5,2.5,6a5.5,5.5,0,0,1,11,0Z" fill="none" stroke="currentColor"></path>
                <circle cx="8" cy="6" r="2.5" fill="none"></circle>
            </g>
        </symbol>
        <symbol id="icon-boat" viewBox="0 0 16 16">
            <title>boat</title>
            <g class="nc-icon-wrapper">
                <polygon fill="currentColor" points="10,3 6,3 6,1 4,1 4,3 2,3 2,7 12,7 " stroke="none"></polygon>
                <polygon points="2,15 0,9 16,9 13,15 " stroke="none"></polygon>
            </g>
        </symbol>
        <symbol id="icon-check-out" viewBox="0 0 16 16">
            <title>check out</title>
            <g class="nc-icon-wrapper">
                <path d="M14,3H13V1a1,1,0,0,0-2,0V3H5V1A1,1,0,0,0,3,1V3H2A2,2,0,0,0,0,5V8A1,1,0,0,0,2,8V7H14v7H8a1,1,0,0,0,0,2h6a2,2,0,0,0,2-2V5A2,2,0,0,0,14,3Z" fill="currentColor" stroke="none"></path>
                <path d="M9,13a1,1,0,0,0,0-2H5V9a.5.5,0,0,0-.8-.4l-4,3a.5.5,0,0,0,0,.8l4,3a.5.5,0,0,0,.3.1.508.508,0,0,0,.224-.053A.5.5,0,0,0,5,15V13Z" stroke="none"></path>
            </g>
        </symbol>
        <symbol id="icon-check-in" viewBox="0 0 16 16">
            <title>check in</title>
            <g class="nc-icon-wrapper">
                <path d="M2,3H3V1A1,1,0,0,1,5,1V3h6V1a1,1,0,0,1,2,0V3h1a2,2,0,0,1,2,2V8a1,1,0,0,1-2,0V7H2v7H8a1,1,0,0,1,0,2H2a2,2,0,0,1-2-2V5A2,2,0,0,1,2,3Z" fill="currentColor" stroke="none"></path>
                <path d="M7,13a1,1,0,0,1,0-2h4V9a.5.5,0,0,1,.8-.4l4,3a.5.5,0,0,1,0,.8l-4,3a.5.5,0,0,1-.3.1.508.508,0,0,1-.224-.053A.5.5,0,0,1,11,15V13Z" stroke="none"></path>
            </g>
        </symbol>
        <symbol id="icon-pin-e" viewBox="0 0 16 16">
            <title>pin e</title>
            <g class="nc-icon-wrapper">
                <circle cx="8" cy="7" r="2" stroke="none"></circle>
                <path fill="currentColor" d="M7.3,15.7c-0.1-0.1-4.2-3.7-4.2-3.8C1.7,10.7,1,8.9,1,7c0-3.9,3.1-7,7-7s7,3.1,7,7c0,1.9-0.7,3.7-2.1,5 c-0.1,0.1-4.1,3.7-4.2,3.8C8.3,16.1,7.7,16.1,7.3,15.7z M4.6,10.7l3.4,3l3.4-3c0,0,0,0,0,0c1-1,1.6-2.2,1.6-3.6c0-2.8-2.2-5-5-5 S3,4.2,3,7C3,8.4,3.6,9.7,4.6,10.7C4.6,10.6,4.6,10.6,4.6,10.7z" stroke="none"></path>
            </g>
        </symbol>
        <symbol id="icon-pin-copy" viewBox="0 0 16 16">
            <title>pin copy</title>
            <g class="nc-icon-wrapper">
                <path fill="currentColor" d="M6,1C3.1,1,0,3.2,0,7c0,3.7,6,9,6,9s6-5.3,6-9C12,3.2,8.9,1,6,1z M6,9C4.9,9,4,8.1,4,7c0-1.1,0.9-2,2-2 s2,0.9,2,2C8,8.1,7.1,9,6,9z" stroke="none"></path>
                <path d="M14,7c0,1-0.3,2.1-0.8,3.2C14.5,8.7,16,6.6,16,4.9C16,1.8,13.4,0,11.1,0c-0.3,0-0.7,0-1,0.1 C12.3,1.4,14,3.8,14,7z" stroke="none"></path>
            </g>
        </symbol>
        <symbol id="icon-pins" viewBox="0 0 16 16">
            <title>pins</title>
            <g class="nc-icon-wrapper">
                <path d="M12.5,8c0,3.5-4.5,7.5-4.5,7.5S3.5,11.5,3.5,8a4.5,4.5,0,0,1,9,0Z" fill="none" stroke="currentColor"></path>
                <path d="M1.9,7A5.584,5.584,0,0,1,.5,3.5,3,3,0,0,1,6,1.841" fill="none"></path>
                <path d="M14.105,7A5.584,5.584,0,0,0,15.5,3.5,3,3,0,0,0,10,1.841" fill="none"></path>
                <circle cx="8" cy="8" r="1.5" fill="none" stroke="currentColor"></circle>
            </g>
        </symbol>
        <symbol id="icon-info" viewBox="0 0 32 32">
            <title>info</title>
            <g class="nc-icon-wrapper">
                <path d="M20.173,28.478l-.307,1.312a27.076,27.076,0,0,1-3.015,1.056,7.774,7.774,0,0,1-1.928.3,3.272,3.272,0,0,1-2.461-.852,2.921,2.921,0,0,1-.82-2.1,6.213,6.213,0,0,1,.082-.986c.055-.343.144-.773.267-1.294l2.167-8.725c.108-.479.215-.993.317-1.539a7.746,7.746,0,0,0,.153-1.4,2.224,2.224,0,0,0-.378-1.529,2.251,2.251,0,0,0-1.546-.38,6.747,6.747,0,0,0-1.2.143q-.747.144-1.135.247l.307-1.313a20.2,20.2,0,0,1,2.869-1.066A8.089,8.089,0,0,1,15.557,10a3.234,3.234,0,0,1,2.44.8,3.007,3.007,0,0,1,.757,2.155,8.282,8.282,0,0,1-.082,1.007,10.186,10.186,0,0,1-.246,1.272L16.248,23.96q-.2.8-.357,1.571a6.753,6.753,0,0,0-.153,1.263,2.008,2.008,0,0,0,.521,1.6,2.646,2.646,0,0,0,1.687.43,8.609,8.609,0,0,0,1.113-.1A5.751,5.751,0,0,0,20.173,28.478Z" fill="currentColor" stroke="none"></path>
                <circle cx="19" cy="4" r="3" stroke="none"></circle>
            </g>
        </symbol>
        <symbol id="icon-info-small" viewBox="0 0 16 16">
            <title>info</title>
            <g class="nc-icon-wrapper">
                <path fill="currentColor" d="M9,7c0-0.6-0.4-1-1-1H5v2h2v6H5v2h6v-2H9V7z" stroke="none"></path>
                <circle cx="7.5" cy="2.5" r="1.5" stroke="none"></circle>
            </g>
        </symbol>
        <symbol id="icon-shield" viewBox="0 0 32 32">
            <title>shield</title>
            <g class="nc-icon-wrapper">
                <path d="M30.275,5.038l-14-4a1.008,1.008,0,0,0-.55,0l-14,4A1,1,0,0,0,1,6C1,25.479,15.517,30.89,15.664,30.941a.986.986,0,0,0,.672,0,21.293,21.293,0,0,0,7.383-5.122C27.041,22.38,31,16.148,31,6A1,1,0,0,0,30.275,5.038ZM20.224,21,16,18.779,11.776,21l.807-4.7L9.166,12.966l4.722-.686L16,8l2.112,4.28,4.722.686L19.417,16.3Z" fill="currentColor" stroke="none"></path>
            </g>
        </symbol>

        <symbol id="icon-zoom-square" viewBox="0 0 16 16">
            <title>zoom square</title>
            <g class="nc-icon-wrapper">
                <path d="M2,2H6V0H2A2,2,0,0,0,0,2V6H2Z" fill="currentColor" stroke="none"></path>
                <path d="M14,0H10V2h4V6h2V2A2,2,0,0,0,14,0Z" fill="currentColor" stroke="none"></path>
                <path d="M14,14H10v2h4a2,2,0,0,0,2-2V10H14Z" fill="currentColor" stroke="none"></path>
                <path d="M2,10H0v4a2,2,0,0,0,2,2H6V14H2Z" fill="currentColor" stroke="none"></path>
                <path d="M4,5v6a1,1,0,0,0,1,1h6a1,1,0,0,0,1-1V5a1,1,0,0,0-1-1H5A1,1,0,0,0,4,5ZM6,6h4v4H6Z" stroke="none"></path>
            </g>
        </symbol>
        <symbol id="icon-time-clock" viewBox="0 0 16 16">
            <title>time clock</title>
            <g class="nc-icon-wrapper">
                <path d="M8,0a8,8,0,1,0,8,8A8.024,8.024,0,0,0,8,0ZM8,14a6,6,0,1,1,6-6A6.018,6.018,0,0,1,8,14Z" fill="currentColor" stroke="none"></path>
                <path d="M11.5,7H9V4.5a1,1,0,0,0-2,0V8A1,1,0,0,0,8,9h3.5a1,1,0,0,0,0-2Z" stroke="none"></path>
            </g>
        </symbol>
        <symbol id="icon-profile" viewBox="0 0 16 16">
            <title>profile</title>
            <g class="nc-icon-wrapper">
                <circle cx="8" cy="3.5" r="3.5" stroke="none"></circle>
                <path d="M8,8.5a7.008,7.008,0,0,0-7,7,.5.5,0,0,0,.5.5h13a.5.5,0,0,0,.5-.5A7.008,7.008,0,0,0,8,8.5Z" fill="currentColor" stroke="none"></path>
            </g>
        </symbol>
        <symbol id="icon-send" viewBox="0 0 32 32">
            <title>send</title>
            <g class="nc-icon-wrapper">
                <path d="M30.65,1.24a1,1,0,0,0-.976-.185l-29,10A1,1,0,0,0,.4,12.8l6.183,4.638L17.638,11,9,19.25V30a1,1,0,0,0,.587.91A.983.983,0,0,0,10,31a1,1,0,0,0,.659-.247l6.313-5.524L24.4,30.8a1,1,0,0,0,1.584-.624l5-28A1,1,0,0,0,30.65,1.24Z" fill="currentColor" stroke="none"></path>
            </g>
        </symbol>
        <symbol id="icon-bedroom" viewBox="0 0 16 16">
            <title>bedroom</title>
            <g class="nc-icon-wrapper">
                <circle cx="5" cy="6" r="2" stroke="none"></circle>
                <path d="M16,8H8V5h6a2,2,0,0,1,2,2Z" stroke="none"></path>
                <polygon points="16 9 2 9 2 2 0 2 0 14 2 14 2 12 14 12 14 14 16 14 16 9" fill="currentColor" stroke="none"></polygon>
            </g>
        </symbol>



        <symbol id="icon-bookmark" viewBox="0 0 20 20">
            <path d="M14 2v17l-4-4-4 4v-17c0-0.553 0.585-1.020 1-1h6c0.689-0.020 1 0.447 1 1z"></path>
        </symbol>
        <symbol id="icon-chevron-thin-right" viewBox="0 0 20 20">
            <path d="M13.25 10l-7.141-7.42c-0.268-0.27-0.268-0.707 0-0.979 0.268-0.27 0.701-0.27 0.969 0l7.83 7.908c0.268 0.271 0.268 0.709 0 0.979l-7.83 7.908c-0.268 0.271-0.701 0.27-0.969 0s-0.268-0.707 0-0.979l7.141-7.417z"></path>
        </symbol>
        <symbol id="icon-aircraft-take-off" viewBox="0 0 20 20">
            <path d="M19.87 6.453c0.119 0.257 0.127 1.29-4.884 3.642l-4.913 2.306c-1.71 0.803-4.191 1.859-5.285 2.151-0.766 0.204-1.497-0.316-1.497-0.316s-2.206-1.975-2.792-2.419c-0.585-0.444-0.535-0.67 0.215-0.91 0.467-0.149 3.13 0.493 4.265 0.78 1.339-0.8 2.562-1.486 3.141-1.798-1.396-1.033-4.008-2.962-4.841-3.55-0.799-0.565 0.010-0.768 0.010-0.768 0.368-0.099 1.162-0.228 1.562-0.144 2.721 0.569 7.263 2.071 7.611 2.186 0.832-0.436 2.128-1.092 2.922-1.465 2.075-0.974 4.327-0.037 4.486 0.305z"></path>
        </symbol>
        <symbol id="icon-chat" viewBox="0 0 20 20">
            <path d="M5.8 12.2v-6.2h-3.8c-1.1 0-2 0.9-2 2v6c0 1.1 0.9 2 2 2h1v3l3-3h5c1.1 0 2-0.9 2-2v-1.82c-0.064 0.014-0.132 0.021-0.2 0.021l-7-0.001zM18 1h-9c-1.1 0-2 0.9-2 2v8h7l3 3v-3h1c1.1 0 2-0.899 2-2v-6c0-1.1-0.9-2-2-2z"></path>
        </symbol>
        <symbol id="icon-home" viewBox="0 0 20 20">
            <path d="M18.672 11h-1.672v6c0 0.445-0.194 1-1 1h-4v-6h-4v6h-4c-0.806 0-1-0.555-1-1v-6h-1.672c-0.598 0-0.47-0.324-0.060-0.748l8.024-8.032c0.195-0.202 0.451-0.302 0.708-0.312 0.257 0.010 0.513 0.109 0.708 0.312l8.023 8.031c0.411 0.425 0.539 0.749-0.059 0.749z"></path>
        </symbol>
        <symbol id="icon-cross" viewBox="0 0 32 32">
            <path d="M31.708 25.708c-0-0-0-0-0-0l-9.708-9.708 9.708-9.708c0-0 0-0 0-0 0.105-0.105 0.18-0.227 0.229-0.357 0.133-0.356 0.057-0.771-0.229-1.057l-4.586-4.586c-0.286-0.286-0.702-0.361-1.057-0.229-0.13 0.048-0.252 0.124-0.357 0.228 0 0-0 0-0 0l-9.708 9.708-9.708-9.708c-0-0-0-0-0-0-0.105-0.104-0.227-0.18-0.357-0.228-0.356-0.133-0.771-0.057-1.057 0.229l-4.586 4.586c-0.286 0.286-0.361 0.702-0.229 1.057 0.049 0.13 0.124 0.252 0.229 0.357 0 0 0 0 0 0l9.708 9.708-9.708 9.708c-0 0-0 0-0 0-0.104 0.105-0.18 0.227-0.229 0.357-0.133 0.355-0.057 0.771 0.229 1.057l4.586 4.586c0.286 0.286 0.702 0.361 1.057 0.229 0.13-0.049 0.252-0.124 0.357-0.229 0-0 0-0 0-0l9.708-9.708 9.708 9.708c0 0 0 0 0 0 0.105 0.105 0.227 0.18 0.357 0.229 0.356 0.133 0.771 0.057 1.057-0.229l4.586-4.586c0.286-0.286 0.362-0.702 0.229-1.057-0.049-0.13-0.124-0.252-0.229-0.357z"></path>
        </symbol>
        <symbol id="icon-key" viewBox="0 0 20 20">
            <path d="M17.691 4.725c-0.503-2.977-3.22-4.967-6.069-4.441s-5.256 2.816-4.753 5.795c0.107 0.641 0.408 1.644 0.763 2.365l-5.175 7.723c-0.191 0.285-0.299 0.799-0.242 1.141l0.333 1.971c0.058 0.342 0.372 0.572 0.7 0.514l1.516-0.281c0.328-0.059 0.744-0.348 0.924-0.639l2.047-3.311 0.018-0.022 1.386-0.256 2.39-3.879c0.785 0.139 1.912 0.092 2.578-0.031 2.848-0.526 4.087-3.67 3.584-6.649zM15.166 6.252c-0.784 1.17-1.584 0.346-2.703-0.475-1.119-0.818-2.135-1.322-1.352-2.492s2.326-1.455 3.447-0.635c1.12 0.819 1.391 2.432 0.608 3.602z"></path>
        </symbol>
        <symbol id="icon-location-pin" viewBox="0 0 20 20">
            <path d="M10 2.009c-2.762 0-5 2.229-5 4.99 0 4.774 5 11 5 11s5-6.227 5-11c0-2.76-2.238-4.99-5-4.99zM10 9.76c-1.492 0-2.7-1.209-2.7-2.7s1.208-2.7 2.7-2.7c1.49 0 2.699 1.209 2.699 2.7s-1.209 2.7-2.699 2.7z"></path>
        </symbol>

        <symbol id="icon-magnifying-glass" viewBox="0 0 20 20">
            <path d="M17.545 15.467l-3.779-3.779c0.57-0.935 0.898-2.035 0.898-3.21 0-3.417-2.961-6.377-6.378-6.377s-6.186 2.769-6.186 6.186c0 3.416 2.961 6.377 6.377 6.377 1.137 0 2.2-0.309 3.115-0.844l3.799 3.801c0.372 0.371 0.975 0.371 1.346 0l0.943-0.943c0.371-0.371 0.236-0.84-0.135-1.211zM4.004 8.287c0-2.366 1.917-4.283 4.282-4.283s4.474 2.107 4.474 4.474c0 2.365-1.918 4.283-4.283 4.283s-4.473-2.109-4.473-4.474z"></path>
        </symbol>
        <symbol id="icon-map" viewBox="0 0 20 20">
            <path d="M19.447 3.718l-6-3c-0.281-0.141-0.613-0.141-0.895 0l-5.63 2.815-5.606-1.869c-0.306-0.102-0.64-0.051-0.901 0.138s-0.415 0.49-0.415 0.811v13.001c0 0.379 0.214 0.725 0.553 0.894l6 3c0.141 0.070 0.294 0.106 0.447 0.106s0.307-0.035 0.447-0.106l5.63-2.814 5.606 1.869c0.305 0.1 0.64 0.049 0.901-0.139s0.415-0.49 0.415-0.81v-13.002c0.001-0.379-0.213-0.725-0.552-0.894zM8 5.231l4-2v11.763l-4 2v-11.763zM2 4l4 1.333v11.661l-4-2v-10.994zM18 16.227l-4-1.334v-11.662l4 2v10.996z"></path>
        </symbol>
        <symbol id="icon-star" viewBox="0 0 20 20">
            <path d="M10 1.3l2.388 6.722h6.412l-5.232 3.948 1.871 6.928-5.439-4.154-5.438 4.154 1.87-6.928-5.233-3.948h6.412l2.389-6.722z"></path>
        </symbol>
        <symbol id="icon-bell" viewBox="0 0 20 20">
            <path d="M14.65 8.512c-2.28-4.907-3.466-6.771-7.191-6.693-1.327 0.027-1.009-0.962-2.021-0.587-1.010 0.375-0.143 0.924-1.177 1.773-2.902 2.383-2.635 4.587-1.289 9.84 0.567 2.213-1.367 2.321-0.602 4.465 0.559 1.564 4.679 2.219 9.025 0.607s7.086-4.814 6.527-6.378c-0.765-2.145-2.311-0.961-3.272-3.027zM10.924 16.595c-3.882 1.44-7.072 0.594-7.207 0.217-0.232-0.65 1.253-2.816 5.691-4.463s6.915-1.036 7.174-0.311c0.153 0.429-1.775 3.116-5.658 4.557zM9.676 13.101c-2.029 0.753-3.439 1.614-4.353 2.389 0.643 0.584 1.847 0.726 3.046 0.281 1.527-0.565 2.466-1.866 2.095-2.904-0.005-0.013-0.011-0.023-0.016-0.036-0.251 0.082-0.508 0.171-0.772 0.27z"></path>
        </symbol>
        <symbol id="icon-enlarge" viewBox="0 0 32 32">
            <path d="M32 0h-13l5 5-6 6 3 3 6-6 5 5z"></path>
            <path d="M32 32v-13l-5 5-6-6-3 3 6 6-5 5z"></path>
            <path d="M0 32h13l-5-5 6-6-3-3-6 6-5-5z"></path>
            <path d="M0 0v13l5-5 6 6 3-3-6-6 5-5z"></path>
        </symbol>
        <symbol id="icon-search" viewBox="0 0 32 32">
            <path d="M31.008 27.231l-7.58-6.447c-0.784-0.705-1.622-1.029-2.299-0.998 1.789-2.096 2.87-4.815 2.87-7.787 0-6.627-5.373-12-12-12s-12 5.373-12 12 5.373 12 12 12c2.972 0 5.691-1.081 7.787-2.87-0.031 0.677 0.293 1.515 0.998 2.299l6.447 7.58c1.104 1.226 2.907 1.33 4.007 0.23s0.997-2.903-0.23-4.007zM12 20c-4.418 0-8-3.582-8-8s3.582-8 8-8 8 3.582 8 8-3.582 8-8 8z"></path>
        </symbol>
        <symbol id="icon-check-circle" viewBox="0 0 24 24">
            <path d="M21 11.080v0.92c-0.001 2.485-1.009 4.733-2.64 6.362s-3.88 2.634-6.365 2.632-4.734-1.009-6.362-2.64-2.634-3.879-2.633-6.365 1.009-4.733 2.64-6.362 3.88-2.634 6.365-2.633c1.33 0.001 2.586 0.289 3.649 0.775 0.502 0.23 1.096 0.008 1.325-0.494s0.008-1.096-0.494-1.325c-1.327-0.606-2.866-0.955-4.479-0.956-3.037-0.002-5.789 1.229-7.78 3.217s-3.224 4.74-3.226 7.777 1.229 5.789 3.217 7.78 4.739 3.225 7.776 3.226 5.789-1.229 7.78-3.217 3.225-4.739 3.227-7.777v-0.92c0-0.552-0.448-1-1-1s-1 0.448-1 1zM21.293 3.293l-9.293 9.302-2.293-2.292c-0.391-0.391-1.024-0.391-1.414 0s-0.391 1.024 0 1.414l3 3c0.391 0.391 1.024 0.39 1.415 0l10-10.010c0.39-0.391 0.39-1.024-0.001-1.414s-1.024-0.39-1.414 0.001z"></path>
        </symbol>
        <symbol id="icon-group" viewBox="0 0 30 28">
            <path d="M9.266 14c-1.625 0.047-3.094 0.75-4.141 2h-2.094c-1.563 0-3.031-0.75-3.031-2.484 0-1.266-0.047-5.516 1.937-5.516 0.328 0 1.953 1.328 4.062 1.328 0.719 0 1.406-0.125 2.078-0.359-0.047 0.344-0.078 0.688-0.078 1.031 0 1.422 0.453 2.828 1.266 4zM26 23.953c0 2.531-1.672 4.047-4.172 4.047h-13.656c-2.5 0-4.172-1.516-4.172-4.047 0-3.531 0.828-8.953 5.406-8.953 0.531 0 2.469 2.172 5.594 2.172s5.063-2.172 5.594-2.172c4.578 0 5.406 5.422 5.406 8.953zM10 4c0 2.203-1.797 4-4 4s-4-1.797-4-4 1.797-4 4-4 4 1.797 4 4zM21 10c0 3.313-2.688 6-6 6s-6-2.688-6-6 2.688-6 6-6 6 2.688 6 6zM30 13.516c0 1.734-1.469 2.484-3.031 2.484h-2.094c-1.047-1.25-2.516-1.953-4.141-2 0.812-1.172 1.266-2.578 1.266-4 0-0.344-0.031-0.688-0.078-1.031 0.672 0.234 1.359 0.359 2.078 0.359 2.109 0 3.734-1.328 4.062-1.328 1.984 0 1.937 4.25 1.937 5.516zM28 4c0 2.203-1.797 4-4 4s-4-1.797-4-4 1.797-4 4-4 4 1.797 4 4z"></path>
        </symbol>
        <symbol id="icon-user" viewBox="0 0 24 24">
            <path d="M21 21v-2c0-1.38-0.561-2.632-1.464-3.536s-2.156-1.464-3.536-1.464h-8c-1.38 0-2.632 0.561-3.536 1.464s-1.464 2.156-1.464 3.536v2c0 0.552 0.448 1 1 1s1-0.448 1-1v-2c0-0.829 0.335-1.577 0.879-2.121s1.292-0.879 2.121-0.879h8c0.829 0 1.577 0.335 2.121 0.879s0.879 1.292 0.879 2.121v2c0 0.552 0.448 1 1 1s1-0.448 1-1zM17 7c0-1.38-0.561-2.632-1.464-3.536s-2.156-1.464-3.536-1.464-2.632 0.561-3.536 1.464-1.464 2.156-1.464 3.536 0.561 2.632 1.464 3.536 2.156 1.464 3.536 1.464 2.632-0.561 3.536-1.464 1.464-2.156 1.464-3.536zM15 7c0 0.829-0.335 1.577-0.879 2.121s-1.292 0.879-2.121 0.879-1.577-0.335-2.121-0.879-0.879-1.292-0.879-2.121 0.335-1.577 0.879-2.121 1.292-0.879 2.121-0.879 1.577 0.335 2.121 0.879 0.879 1.292 0.879 2.121z"></path>
        </symbol>
        <symbol id="icon-x" viewBox="0 0 24 24">
            <path d="M5.293 6.707l5.293 5.293-5.293 5.293c-0.391 0.391-0.391 1.024 0 1.414s1.024 0.391 1.414 0l5.293-5.293 5.293 5.293c0.391 0.391 1.024 0.391 1.414 0s0.391-1.024 0-1.414l-5.293-5.293 5.293-5.293c0.391-0.391 0.391-1.024 0-1.414s-1.024-0.391-1.414 0l-5.293 5.293-5.293-5.293c-0.391-0.391-1.024-0.391-1.414 0s-0.391 1.024 0 1.414z"></path>
        </symbol>
        <symbol id="icon-single_bed" viewBox="0 0 24 24">
            <path d="M6 12v3h12v-3h-12zM8.016 6.984v3h3v-3h-3zM15.984 9.984v-3h-3v3h3zM20.016 12v5.016h-1.359l-0.656 1.969h-0.984l-0.656-1.969h-8.672l-0.703 1.969h-0.984l-0.656-1.969h-1.359v-5.016q0-0.797 0.609-1.406t1.406-0.609v-3q0-0.797 0.609-1.383t1.406-0.586h7.969q0.797 0 1.406 0.586t0.609 1.383v3q0.797 0 1.406 0.609t0.609 1.406z"></path>
        </symbol>
        <symbol id="icon-maximize" viewBox="0 0 24 24">
            <path d="M8 2h-3c-0.828 0-1.58 0.337-2.121 0.879s-0.879 1.293-0.879 2.121v3c0 0.552 0.448 1 1 1s1-0.448 1-1v-3c0-0.276 0.111-0.525 0.293-0.707s0.431-0.293 0.707-0.293h3c0.552 0 1-0.448 1-1s-0.448-1-1-1zM22 8v-3c0-0.828-0.337-1.58-0.879-2.121s-1.293-0.879-2.121-0.879h-3c-0.552 0-1 0.448-1 1s0.448 1 1 1h3c0.276 0 0.525 0.111 0.707 0.293s0.293 0.431 0.293 0.707v3c0 0.552 0.448 1 1 1s1-0.448 1-1zM16 22h3c0.828 0 1.58-0.337 2.121-0.879s0.879-1.293 0.879-2.121v-3c0-0.552-0.448-1-1-1s-1 0.448-1 1v3c0 0.276-0.111 0.525-0.293 0.707s-0.431 0.293-0.707 0.293h-3c-0.552 0-1 0.448-1 1s0.448 1 1 1zM2 16v3c0 0.828 0.337 1.58 0.879 2.121s1.293 0.879 2.121 0.879h3c0.552 0 1-0.448 1-1s-0.448-1-1-1h-3c-0.276 0-0.525-0.111-0.707-0.293s-0.293-0.431-0.293-0.707v-3c0-0.552-0.448-1-1-1s-1 0.448-1 1z"></path>
        </symbol>
        <symbol id="icon-chevron-right" viewBox="0 0 24 24">
            <path d="M9.707 18.707l6-6c0.391-0.391 0.391-1.024 0-1.414l-6-6c-0.391-0.391-1.024-0.391-1.414 0s-0.391 1.024 0 1.414l5.293 5.293-5.293 5.293c-0.391 0.391-0.391 1.024 0 1.414s1.024 0.391 1.414 0z"></path>
        </symbol>
        <symbol id="icon-chevron-down" viewBox="0 0 24 24">
            <path d="M5.293 9.707l6 6c0.391 0.391 1.024 0.391 1.414 0l6-6c0.391-0.391 0.391-1.024 0-1.414s-1.024-0.391-1.414 0l-5.293 5.293-5.293-5.293c-0.391-0.391-1.024-0.391-1.414 0s-0.391 1.024 0 1.414z"></path>
        </symbol>
        <symbol id="icon-chevron-left" viewBox="0 0 24 24">
            <path d="M15.707 17.293l-5.293-5.293 5.293-5.293c0.391-0.391 0.391-1.024 0-1.414s-1.024-0.391-1.414 0l-6 6c-0.391 0.391-0.391 1.024 0 1.414l6 6c0.391 0.391 1.024 0.391 1.414 0s0.391-1.024 0-1.414z"></path>
        </symbol>
        <symbol id="icon-chevron-up" viewBox="0 0 24 24">
            <path d="M18.707 14.293l-6-6c-0.391-0.391-1.024-0.391-1.414 0l-6 6c-0.391 0.391-0.391 1.024 0 1.414s1.024 0.391 1.414 0l5.293-5.293 5.293 5.293c0.391 0.391 1.024 0.391 1.414 0s0.391-1.024 0-1.414z"></path>
        </symbol>

        <symbol id="icon-twitter" viewBox="0 0 26 28">
            <path d="M25.312 6.375c-0.688 1-1.547 1.891-2.531 2.609 0.016 0.219 0.016 0.438 0.016 0.656 0 6.672-5.078 14.359-14.359 14.359-2.859 0-5.516-0.828-7.75-2.266 0.406 0.047 0.797 0.063 1.219 0.063 2.359 0 4.531-0.797 6.266-2.156-2.219-0.047-4.078-1.5-4.719-3.5 0.313 0.047 0.625 0.078 0.953 0.078 0.453 0 0.906-0.063 1.328-0.172-2.312-0.469-4.047-2.5-4.047-4.953v-0.063c0.672 0.375 1.453 0.609 2.281 0.641-1.359-0.906-2.25-2.453-2.25-4.203 0-0.938 0.25-1.797 0.688-2.547 2.484 3.062 6.219 5.063 10.406 5.281-0.078-0.375-0.125-0.766-0.125-1.156 0-2.781 2.25-5.047 5.047-5.047 1.453 0 2.766 0.609 3.687 1.594 1.141-0.219 2.234-0.641 3.203-1.219-0.375 1.172-1.172 2.156-2.219 2.781 1.016-0.109 2-0.391 2.906-0.781z"></path>
        </symbol>
        <symbol id="icon-facebook" viewBox="0 0 16 28">
            <path d="M14.984 0.187v4.125h-2.453c-1.922 0-2.281 0.922-2.281 2.25v2.953h4.578l-0.609 4.625h-3.969v11.859h-4.781v-11.859h-3.984v-4.625h3.984v-3.406c0-3.953 2.422-6.109 5.953-6.109 1.687 0 3.141 0.125 3.563 0.187z"></path>
        </symbol>
        <symbol id="icon-logo-linkedin" viewBox="0 0 48 48">
            <g class="nc-icon-wrapper">
                <path d="M46,0H2C0.9,0,0,0.9,0,2v44c0,1.1,0.9,2,2,2h44c1.1,0,2-0.9,2-2V2C48,0.9,47.1,0,46,0z M14.2,40.9H7.1V18 h7.1V40.9z M10.7,14.9c-2.3,0-4.1-1.8-4.1-4.1c0-2.3,1.8-4.1,4.1-4.1c2.3,0,4.1,1.8,4.1,4.1C14.8,13,13,14.9,10.7,14.9z M40.9,40.9 h-7.1V29.8c0-2.7,0-6.1-3.7-6.1c-3.7,0-4.3,2.9-4.3,5.9v11.3h-7.1V18h6.8v3.1h0.1c0.9-1.8,3.3-3.7,6.7-3.7c7.2,0,8.5,4.7,8.5,10.9 V40.9z"/>
            </g>
        </symbol>
        <symbol id="icon-linkedin" viewBox="0 0 24 28">
            <path d="M5.453 9.766v15.484h-5.156v-15.484h5.156zM5.781 4.984c0.016 1.484-1.109 2.672-2.906 2.672v0h-0.031c-1.734 0-2.844-1.188-2.844-2.672 0-1.516 1.156-2.672 2.906-2.672 1.766 0 2.859 1.156 2.875 2.672zM24 16.375v8.875h-5.141v-8.281c0-2.078-0.75-3.5-2.609-3.5-1.422 0-2.266 0.953-2.641 1.875-0.125 0.344-0.172 0.797-0.172 1.266v8.641h-5.141c0.063-14.031 0-15.484 0-15.484h5.141v2.25h-0.031c0.672-1.062 1.891-2.609 4.672-2.609 3.391 0 5.922 2.219 5.922 6.969z"></path>
        </symbol>
        <symbol id="icon-youtube-play" viewBox="0 0 28 28">
            <path d="M11.109 17.625l7.562-3.906-7.562-3.953v7.859zM14 4.156c5.891 0 9.797 0.281 9.797 0.281 0.547 0.063 1.75 0.063 2.812 1.188 0 0 0.859 0.844 1.109 2.781 0.297 2.266 0.281 4.531 0.281 4.531v2.125s0.016 2.266-0.281 4.531c-0.25 1.922-1.109 2.781-1.109 2.781-1.062 1.109-2.266 1.109-2.812 1.172 0 0-3.906 0.297-9.797 0.297v0c-7.281-0.063-9.516-0.281-9.516-0.281-0.625-0.109-2.031-0.078-3.094-1.188 0 0-0.859-0.859-1.109-2.781-0.297-2.266-0.281-4.531-0.281-4.531v-2.125s-0.016-2.266 0.281-4.531c0.25-1.937 1.109-2.781 1.109-2.781 1.062-1.125 2.266-1.125 2.812-1.188 0 0 3.906-0.281 9.797-0.281v0z"></path>
        </symbol>
        <symbol id="icon-instagram" viewBox="0 0 24 28">
            <path d="M16 14c0-2.203-1.797-4-4-4s-4 1.797-4 4 1.797 4 4 4 4-1.797 4-4zM18.156 14c0 3.406-2.75 6.156-6.156 6.156s-6.156-2.75-6.156-6.156 2.75-6.156 6.156-6.156 6.156 2.75 6.156 6.156zM19.844 7.594c0 0.797-0.641 1.437-1.437 1.437s-1.437-0.641-1.437-1.437 0.641-1.437 1.437-1.437 1.437 0.641 1.437 1.437zM12 4.156c-1.75 0-5.5-0.141-7.078 0.484-0.547 0.219-0.953 0.484-1.375 0.906s-0.688 0.828-0.906 1.375c-0.625 1.578-0.484 5.328-0.484 7.078s-0.141 5.5 0.484 7.078c0.219 0.547 0.484 0.953 0.906 1.375s0.828 0.688 1.375 0.906c1.578 0.625 5.328 0.484 7.078 0.484s5.5 0.141 7.078-0.484c0.547-0.219 0.953-0.484 1.375-0.906s0.688-0.828 0.906-1.375c0.625-1.578 0.484-5.328 0.484-7.078s0.141-5.5-0.484-7.078c-0.219-0.547-0.484-0.953-0.906-1.375s-0.828-0.688-1.375-0.906c-1.578-0.625-5.328-0.484-7.078-0.484zM24 14c0 1.656 0.016 3.297-0.078 4.953-0.094 1.922-0.531 3.625-1.937 5.031s-3.109 1.844-5.031 1.937c-1.656 0.094-3.297 0.078-4.953 0.078s-3.297 0.016-4.953-0.078c-1.922-0.094-3.625-0.531-5.031-1.937s-1.844-3.109-1.937-5.031c-0.094-1.656-0.078-3.297-0.078-4.953s-0.016-3.297 0.078-4.953c0.094-1.922 0.531-3.625 1.937-5.031s3.109-1.844 5.031-1.937c1.656-0.094 3.297-0.078 4.953-0.078s3.297-0.016 4.953 0.078c1.922 0.094 3.625 0.531 5.031 1.937s1.844 3.109 1.937 5.031c0.094 1.656 0.078 3.297 0.078 4.953z"></path>
        </symbol>
        <symbol id="icon-pinterest-p" viewBox="0 0 20 28">
            <path d="M0 9.328c0-5.766 5.281-9.328 10.625-9.328 4.906 0 9.375 3.375 9.375 8.547 0 4.859-2.484 10.25-8.016 10.25-1.313 0-2.969-0.656-3.609-1.875-1.188 4.703-1.094 5.406-3.719 9l-0.219 0.078-0.141-0.156c-0.094-0.984-0.234-1.953-0.234-2.938 0-3.187 1.469-7.797 2.188-10.891-0.391-0.797-0.5-1.766-0.5-2.641 0-1.578 1.094-3.578 2.875-3.578 1.313 0 2.016 1 2.016 2.234 0 2.031-1.375 3.938-1.375 5.906 0 1.344 1.109 2.281 2.406 2.281 3.594 0 4.703-5.187 4.703-7.953 0-3.703-2.625-5.719-6.172-5.719-4.125 0-7.313 2.969-7.313 7.156 0 2.016 1.234 3.047 1.234 3.531 0 0.406-0.297 1.844-0.812 1.844-0.078 0-0.187-0.031-0.266-0.047-2.234-0.672-3.047-3.656-3.047-5.703z"></path>
        </symbol>
        <symbol id="icon-envelope" viewBox="0 0 28 28">
            <path d="M28 11.094v12.406c0 1.375-1.125 2.5-2.5 2.5h-23c-1.375 0-2.5-1.125-2.5-2.5v-12.406c0.469 0.516 1 0.969 1.578 1.359 2.594 1.766 5.219 3.531 7.766 5.391 1.313 0.969 2.938 2.156 4.641 2.156h0.031c1.703 0 3.328-1.188 4.641-2.156 2.547-1.844 5.172-3.625 7.781-5.391 0.562-0.391 1.094-0.844 1.563-1.359zM28 6.5c0 1.75-1.297 3.328-2.672 4.281-2.438 1.687-4.891 3.375-7.313 5.078-1.016 0.703-2.734 2.141-4 2.141h-0.031c-1.266 0-2.984-1.437-4-2.141-2.422-1.703-4.875-3.391-7.297-5.078-1.109-0.75-2.688-2.516-2.688-3.938 0-1.531 0.828-2.844 2.5-2.844h23c1.359 0 2.5 1.125 2.5 2.5z"></path>
        </symbol>
        <symbol id="icon-envelope-o" viewBox="0 0 28 28">
            <path d="M26 23.5v-12c-0.328 0.375-0.688 0.719-1.078 1.031-2.234 1.719-4.484 3.469-6.656 5.281-1.172 0.984-2.625 2.188-4.25 2.188h-0.031c-1.625 0-3.078-1.203-4.25-2.188-2.172-1.813-4.422-3.563-6.656-5.281-0.391-0.313-0.75-0.656-1.078-1.031v12c0 0.266 0.234 0.5 0.5 0.5h23c0.266 0 0.5-0.234 0.5-0.5zM26 7.078c0-0.391 0.094-1.078-0.5-1.078h-23c-0.266 0-0.5 0.234-0.5 0.5 0 1.781 0.891 3.328 2.297 4.438 2.094 1.641 4.188 3.297 6.266 4.953 0.828 0.672 2.328 2.109 3.422 2.109h0.031c1.094 0 2.594-1.437 3.422-2.109 2.078-1.656 4.172-3.313 6.266-4.953 1.016-0.797 2.297-2.531 2.297-3.859zM28 6.5v17c0 1.375-1.125 2.5-2.5 2.5h-23c-1.375 0-2.5-1.125-2.5-2.5v-17c0-1.375 1.125-2.5 2.5-2.5h23c1.375 0 2.5 1.125 2.5 2.5z"></path>
        </symbol>
        <symbol id="icon-quote" viewBox="0 0 20 20">
            <path d="M5.315 3.401c-1.61 0-2.916 1.343-2.916 3s1.306 3 2.916 3c2.915 0 0.972 5.799-2.916 5.799v1.4c6.939 0.001 9.658-13.199 2.916-13.199zM13.715 3.401c-1.609 0-2.915 1.343-2.915 3s1.306 3 2.915 3c2.916 0 0.973 5.799-2.915 5.799v1.4c6.938 0.001 9.657-13.199 2.915-13.199z"></path>
        </symbol>
        <symbol id="icon-arrow-down" viewBox="0 0 24 24">
            <path d="M18.293 11.293l-5.293 5.293v-11.586c0-0.552-0.448-1-1-1s-1 0.448-1 1v11.586l-5.293-5.293c-0.391-0.391-1.024-0.391-1.414 0s-0.391 1.024 0 1.414l7 7c0.092 0.092 0.202 0.166 0.324 0.217 0.245 0.101 0.521 0.101 0.766 0 0.118-0.049 0.228-0.121 0.324-0.217l7-7c0.391-0.391 0.391-1.024 0-1.414s-1.024-0.391-1.414 0z"></path>
        </symbol>
        <symbol id="icon-arrow-left" viewBox="0 0 24 24">
            <path d="M12.707 18.293l-5.293-5.293h11.586c0.552 0 1-0.448 1-1s-0.448-1-1-1h-11.586l5.293-5.293c0.391-0.391 0.391-1.024 0-1.414s-1.024-0.391-1.414 0l-7 7c-0.096 0.096-0.168 0.206-0.217 0.324-0.051 0.122-0.076 0.253-0.076 0.383 0 0.256 0.098 0.512 0.293 0.707l7 7c0.391 0.391 1.024 0.391 1.414 0s0.391-1.024 0-1.414z"></path>
        </symbol>
        <symbol id="icon-arrow-right" viewBox="0 0 24 24">
            <path d="M11.293 5.707l5.293 5.293h-11.586c-0.552 0-1 0.448-1 1s0.448 1 1 1h11.586l-5.293 5.293c-0.391 0.391-0.391 1.024 0 1.414s1.024 0.391 1.414 0l7-7c0.092-0.092 0.166-0.202 0.217-0.324 0.101-0.245 0.101-0.521 0-0.766-0.049-0.118-0.121-0.228-0.217-0.324l-7-7c-0.391-0.391-1.024-0.391-1.414 0s-0.391 1.024 0 1.414z"></path>
        </symbol>
        <symbol id="icon-arrow-up" viewBox="0 0 24 24">
            <path d="M5.707 12.707l5.293-5.293v11.586c0 0.552 0.448 1 1 1s1-0.448 1-1v-11.586l5.293 5.293c0.391 0.391 1.024 0.391 1.414 0s0.391-1.024 0-1.414l-7-7c-0.092-0.092-0.202-0.166-0.324-0.217s-0.253-0.076-0.383-0.076c-0.256 0-0.512 0.098-0.707 0.293l-7 7c-0.391 0.391-0.391 1.024 0 1.414s1.024 0.391 1.414 0z"></path>
        </symbol>
        <symbol id="icon-star-outlined" viewBox="0 0 20 20">
            <path d="M18.8 8.022h-6.413l-2.387-6.722-2.389 6.722h-6.412l5.232 3.947-1.871 6.929 5.44-4.154 5.438 4.154-1.869-6.929 5.231-3.947zM10 12.783l-3.014 2.5 1.243-3.562-2.851-2.3 3.522 0.101 1.1-4.040 1.099 4.040 3.521-0.101-2.851 2.3 1.243 3.562-3.012-2.5z"></path>
        </symbol>
        <symbol id="icon-star" viewBox="0 0 20 20">
            <path d="M10 1.3l2.388 6.722h6.412l-5.232 3.948 1.871 6.928-5.439-4.154-5.438 4.154 1.87-6.928-5.233-3.948h6.412l2.389-6.722z"></path>
        </symbol>
        <symbol id="icon-controller-play" viewBox="0 0 20 20">
            <path d="M15 10.001c0 0.299-0.305 0.514-0.305 0.514l-8.561 5.303c-0.624 0.409-1.134 0.106-1.134-0.669v-10.297c0-0.777 0.51-1.078 1.135-0.67l8.561 5.305c-0.001 0 0.304 0.215 0.304 0.514z"></path>
        </symbol>

        <symbol id="icon-map-pin" viewBox="0 0 24 24">
            <path d="M22 10c0-2.761-1.12-5.263-2.929-7.071s-4.31-2.929-7.071-2.929-5.263 1.12-7.071 2.929-2.929 4.31-2.929 7.071c0 0.569 0.053 1.128 0.15 1.676 0.274 1.548 0.899 3.004 1.682 4.32 2.732 4.591 7.613 7.836 7.613 7.836 0.331 0.217 0.765 0.229 1.109 0 0 0 4.882-3.245 7.613-7.836 0.783-1.316 1.408-2.772 1.682-4.32 0.098-0.548 0.151-1.107 0.151-1.676zM20 10c0 0.444-0.041 0.887-0.119 1.328-0.221 1.25-0.737 2.478-1.432 3.646-1.912 3.214-5.036 5.747-6.369 6.74-1.398-0.916-4.588-3.477-6.53-6.74-0.695-1.168-1.211-2.396-1.432-3.646-0.077-0.441-0.118-0.884-0.118-1.328 0-2.209 0.894-4.208 2.343-5.657s3.448-2.343 5.657-2.343 4.208 0.894 5.657 2.343 2.343 3.448 2.343 5.657zM16 10c0-1.104-0.449-2.106-1.172-2.828s-1.724-1.172-2.828-1.172-2.106 0.449-2.828 1.172-1.172 1.724-1.172 2.828 0.449 2.106 1.172 2.828 1.724 1.172 2.828 1.172 2.106-0.449 2.828-1.172 1.172-1.724 1.172-2.828zM14 10c0 0.553-0.223 1.051-0.586 1.414s-0.861 0.586-1.414 0.586-1.051-0.223-1.414-0.586-0.586-0.861-0.586-1.414 0.223-1.051 0.586-1.414 0.861-0.586 1.414-0.586 1.051 0.223 1.414 0.586 0.586 0.861 0.586 1.414z"></path>
        </symbol>
        <symbol id="icon-calendar" viewBox="0 0 24 24">
            <path d="M7 2v1h-2c-0.828 0-1.58 0.337-2.121 0.879s-0.879 1.293-0.879 2.121v14c0 0.828 0.337 1.58 0.879 2.121s1.293 0.879 2.121 0.879h14c0.828 0 1.58-0.337 2.121-0.879s0.879-1.293 0.879-2.121v-14c0-0.828-0.337-1.58-0.879-2.121s-1.293-0.879-2.121-0.879h-2v-1c0-0.552-0.448-1-1-1s-1 0.448-1 1v1h-6v-1c0-0.552-0.448-1-1-1s-1 0.448-1 1zM20 9h-16v-3c0-0.276 0.111-0.525 0.293-0.707s0.431-0.293 0.707-0.293h2v1c0 0.552 0.448 1 1 1s1-0.448 1-1v-1h6v1c0 0.552 0.448 1 1 1s1-0.448 1-1v-1h2c0.276 0 0.525 0.111 0.707 0.293s0.293 0.431 0.293 0.707zM4 11h16v9c0 0.276-0.111 0.525-0.293 0.707s-0.431 0.293-0.707 0.293h-14c-0.276 0-0.525-0.111-0.707-0.293s-0.293-0.431-0.293-0.707z"></path>
        </symbol>
        <symbol id="icon-compass" viewBox="0 0 24 24">
            <path d="M23 12c0-3.037-1.232-5.789-3.222-7.778s-4.741-3.222-7.778-3.222-5.789 1.232-7.778 3.222-3.222 4.741-3.222 7.778 1.232 5.789 3.222 7.778 4.741 3.222 7.778 3.222 5.789-1.232 7.778-3.222 3.222-4.741 3.222-7.778zM21 12c0 2.486-1.006 4.734-2.636 6.364s-3.878 2.636-6.364 2.636-4.734-1.006-6.364-2.636-2.636-3.878-2.636-6.364 1.006-4.734 2.636-6.364 3.878-2.636 6.364-2.636 4.734 1.006 6.364 2.636 2.636 3.878 2.636 6.364zM17.189 8.076c0.066-0.196 0.072-0.418 0-0.632-0.175-0.524-0.741-0.807-1.265-0.632l-6.36 2.12c-0.29 0.098-0.529 0.323-0.632 0.632l-2.12 6.36c-0.066 0.196-0.072 0.418 0 0.632 0.175 0.524 0.741 0.807 1.265 0.632l6.36-2.12c0.29-0.098 0.529-0.323 0.632-0.632zM14.659 9.341l-1.33 3.988-3.988 1.33 1.329-3.988z"></path>
        </symbol>
        <symbol id="icon-ship" viewBox="0 0 32 28">
            <path d="M28.297 24.297c0.391-0.391 1.016-0.391 1.406 0l2 2-1.406 1.406-1.297-1.297-1.297 1.297c-0.187 0.203-0.453 0.297-0.703 0.297s-0.516-0.094-0.703-0.297l-1.297-1.297-1.297 1.297c-0.391 0.391-1.016 0.391-1.406 0l-1.297-1.297-1.297 1.297c-0.391 0.391-1.016 0.391-1.406 0l-1.297-1.297-1.297 1.297c-0.391 0.391-1.016 0.391-1.406 0l-1.297-1.297-1.297 1.297c-0.391 0.391-1.016 0.391-1.406 0l-1.297-1.297-1.297 1.297c-0.391 0.391-1.016 0.391-1.406 0l-1.297-1.297-1.297 1.297c-0.391 0.391-1.016 0.391-1.406 0l-2-2 1.406-1.406 1.297 1.297 1.297-1.297c0.391-0.391 1.016-0.391 1.406 0l1.297 1.297 1.297-1.297c0.391-0.391 1.016-0.391 1.406 0l1.297 1.297 1.297-1.297c0.391-0.391 1.016-0.391 1.406 0l1.297 1.297 1.297-1.297c0.391-0.391 1.016-0.391 1.406 0l1.297 1.297 1.297-1.297c0.391-0.391 1.016-0.391 1.406 0l1.297 1.297 1.297-1.297c0.391-0.391 1.016-0.391 1.406 0l1.297 1.297zM3.703 23.703c-0.391 0.391-1.016 0.391-1.406 0l-2-2 1.406-1.406 1.297 1.281 1.297-1.281c0.391-0.391 1.016-0.391 1.406 0l1.297 1.281 1-1v-4.578l-3.281-4.906c-0.359-0.547-0.109-1.297 0.516-1.516l2.766-0.906v-4.672h2v-2h4v-2h4v2h4v2h2v4.672l2.766 0.906c0.625 0.219 0.875 0.969 0.516 1.516l-3.281 4.906v4.578l0.297-0.281c0.391-0.391 1.016-0.391 1.406 0l1.297 1.281 1.297-1.281c0.391-0.391 1.016-0.391 1.406 0l2 2-1.406 1.406-1.297-1.297-1.297 1.297c-0.187 0.203-0.453 0.297-0.703 0.297s-0.516-0.094-0.703-0.297l-1.297-1.297-1.297 1.297c-0.391 0.391-1.016 0.391-1.406 0l-1.297-1.297-1.297 1.297c-0.391 0.391-1.016 0.391-1.406 0l-1.297-1.297-1.297 1.297c-0.391 0.391-1.016 0.391-1.406 0l-1.297-1.297-1.297 1.297c-0.391 0.391-1.016 0.391-1.406 0l-1.297-1.297-1.297 1.297c-0.391 0.391-1.016 0.391-1.406 0l-1.297-1.297zM10 6v2l6-2 6 2v-2h-2v-2h-8v2h-2z"></path>
        </symbol>
        <symbol id="icon-plus" viewBox="0 0 24 24">
            <path d="M5 13h6v6c0 0.552 0.448 1 1 1s1-0.448 1-1v-6h6c0.552 0 1-0.448 1-1s-0.448-1-1-1h-6v-6c0-0.552-0.448-1-1-1s-1 0.448-1 1v6h-6c-0.552 0-1 0.448-1 1s0.448 1 1 1z"></path>
        </symbol>
        <symbol id="icon-camera-20" viewBox="0 0 48 48">
            <title>camera 20</title>
            <g class="nc-icon-wrapper" stroke-linecap="square" stroke-linejoin="miter" stroke="currentColor">
                <line fill="none" stroke-miterlimit="10" x1="7" y1="6" x2="12" y2="6"/>
                <path fill="none" stroke="currentColor" stroke-miterlimit="10" d="M5,43h38 c1.657,0,3-1.343,3-3V14c0-1.657-1.343-3-3-3h-8l-3.999-6H21l-4,6H5c-1.657,0-3,1.343-3,3v26C2,41.657,3.343,43,5,43z"/>
                <circle fill="none" stroke-miterlimit="10" cx="26" cy="27" r="10"/>
                <circle fill="none" stroke="currentColor" stroke-miterlimit="10" cx="10" cy="19" r="1"/>
                <circle data-stroke="none" cx="10" cy="19" r="1" stroke-linejoin="miter" stroke-linecap="square" stroke="none"/>
            </g>
        </symbol>
        <symbol id="icon-ic_chevron_right_36px" viewBox="0 0 36 36">
            <g class="nc-icon-wrapper" stroke="none">
                <path d="M15 9l-2.12 2.12L19.76 18l-6.88 6.88L15 27l9-9z"/>
            </g>
        </symbol>
        <symbol id="icon-ic_chevron_left_36px" viewBox="0 0 36 36">
            <g class="nc-icon-wrapper" stroke="none">
                <path d="M23.12 11.12L21 9l-9 9 9 9 2.12-2.12L16.24 18z"/>
            </g>
        </symbol>

        <!-- Nucleo -->
        <symbol id="icon-compass-04" viewBox="0 0 64 64">
            <g class="nc-icon-wrapper" stroke-linecap="square" stroke-linejoin="miter" stroke="currentColor">
                <line data-cap="butt" fill="none" stroke-miterlimit="10" x1="28" y1="28" x2="36" y2="36" stroke-linecap="butt"/>
                <circle fill="none" stroke="currentColor" stroke-miterlimit="10" cx="32" cy="32" r="30"/>
                <path fill="none" stroke="currentColor" stroke-miterlimit="10" d="M14.76,39.997 C13.631,37.567,13,34.857,13,32c0-10.493,8.507-19,19-19c2.859,0,5.571,0.631,8.003,1.763"/>
                <path fill="none" stroke="currentColor" stroke-miterlimit="10" d="M49.242,24.006 C50.37,26.436,51,29.145,51,32c0,10.493-8.507,19-19,19c-2.859,0-5.57-0.631-8.002-1.762"/>
                <polygon fill="none" stroke-miterlimit="10" points=" 46,18 36,36 18,46 28,28 "/>
                <line fill="none" stroke="currentColor" stroke-miterlimit="10" x1="32" y1="13" x2="32" y2="8"/>
                <line fill="none" stroke="currentColor" stroke-miterlimit="10" x1="51" y1="32" x2="56" y2="32"/>
                <line fill="none" stroke="currentColor" stroke-miterlimit="10" x1="32" y1="51" x2="32" y2="56"/>
                <line fill="none" stroke="currentColor" stroke-miterlimit="10" x1="13" y1="32" x2="8" y2="32"/>
            </g>
        </symbol>
        <symbol id="icon-logo-facebook" viewBox="0 0 24 24">
            <g class="nc-icon-wrapper">
                <path d="M24,12.072A12,12,0,1,0,10.125,23.926V15.541H7.078V12.072h3.047V9.428c0-3.007,1.792-4.669,4.532-4.669a18.611,18.611,0,0,1,2.687.234V7.947H15.83a1.734,1.734,0,0,0-1.947,1.49,1.71,1.71,0,0,0-.008.385v2.25H17.2l-.532,3.469h-2.8v8.385A12,12,0,0,0,24,12.072Z"/>
            </g>
        </symbol>
        <symbol id="icon-grid-layout" viewBox="0 0 16 16">
            <g class="nc-icon-wrapper">
                <path fill="currentColor" d="M6,0H1C0.4,0,0,0.4,0,1v5c0,0.6,0.4,1,1,1h5c0.6,0,1-0.4,1-1V1C7,0.4,6.6,0,6,0z M5,5H2V2h3V5z" stroke="none"></path>
                <path fill="currentColor" d="M15,0h-5C9.4,0,9,0.4,9,1v5c0,0.6,0.4,1,1,1h5c0.6,0,1-0.4,1-1V1C16,0.4,15.6,0,15,0z M14,5h-3V2h3V5z" stroke="none"></path>
                <path fill="currentColor" d="M6,9H1c-0.6,0-1,0.4-1,1v5c0,0.6,0.4,1,1,1h5c0.6,0,1-0.4,1-1v-5C7,9.4,6.6,9,6,9z M5,14H2v-3h3V14z" stroke="none"></path>
                <path fill="currentColor" d="M15,9h-5c-0.6,0-1,0.4-1,1v5c0,0.6,0.4,1,1,1h5c0.6,0,1-0.4,1-1v-5C16,9.4,15.6,9,15,9z M14,14h-3v-3h3V14z" stroke="none"></path>
            </g>
        </symbol>
        <symbol id="icon-list-bullet" viewBox="0 0 16 16">
            <g class="nc-icon-wrapper">
                <circle cx="2" cy="2" r="2" stroke="none"></circle>
                <circle cx="2" cy="8" r="2" stroke="none"></circle>
                <circle cx="2" cy="14" r="2" stroke="none"></circle>
                <rect x="6" y="1" fill="currentColor" width="10" height="2" stroke="none"></rect>
                <rect x="6" y="7" fill="currentColor" width="10" height="2" stroke="none"></rect>
                <rect x="6" y="13" fill="currentColor" width="10" height="2" stroke="none"></rect>
            </g>
        </symbol>
        <symbol id="icon-logo-instagram" viewBox="0 0 24 24">
            <g class="nc-icon-wrapper">
                <path d="M12,2.162c3.204,0,3.584,0.012,4.849,0.07c1.366,0.062,2.633,0.336,3.608,1.311 c0.975,0.975,1.249,2.242,1.311,3.608c0.058,1.265,0.07,1.645,0.07,4.849s-0.012,3.584-0.07,4.849 c-0.062,1.366-0.336,2.633-1.311,3.608c-0.975,0.975-2.242,1.249-3.608,1.311c-1.265,0.058-1.645,0.07-4.849,0.07 s-3.584-0.012-4.849-0.07c-1.366-0.062-2.633-0.336-3.608-1.311c-0.975-0.975-1.249-2.242-1.311-3.608 c-0.058-1.265-0.07-1.645-0.07-4.849s0.012-3.584,0.07-4.849c0.062-1.366,0.336-2.633,1.311-3.608 c0.975-0.975,2.242-1.249,3.608-1.311C8.416,2.174,8.796,2.162,12,2.162 M12,0C8.741,0,8.332,0.014,7.052,0.072 c-1.95,0.089-3.663,0.567-5.038,1.942C0.639,3.389,0.161,5.102,0.072,7.052C0.014,8.332,0,8.741,0,12 c0,3.259,0.014,3.668,0.072,4.948c0.089,1.95,0.567,3.663,1.942,5.038c1.375,1.375,3.088,1.853,5.038,1.942 C8.332,23.986,8.741,24,12,24s3.668-0.014,4.948-0.072c1.95-0.089,3.663-0.567,5.038-1.942c1.375-1.375,1.853-3.088,1.942-5.038 C23.986,15.668,24,15.259,24,12s-0.014-3.668-0.072-4.948c-0.089-1.95-0.567-3.663-1.942-5.038 c-1.375-1.375-3.088-1.853-5.038-1.942C15.668,0.014,15.259,0,12,0L12,0z"/>
                <path d="M12,5.838c-3.403,0-6.162,2.759-6.162,6.162S8.597,18.162,12,18.162s6.162-2.759,6.162-6.162 S15.403,5.838,12,5.838z M12,16c-2.209,0-4-1.791-4-4s1.791-4,4-4s4,1.791,4,4S14.209,16,12,16z"/>
                <circle cx="18.406" cy="5.594" r="1.44"/>
            </g>
        </symbol>
        <symbol id="icon-logo-twitter" viewBox="0 0 24 24">
            <g class="nc-icon-wrapper">
                <path d="M24,4.6c-0.9,0.4-1.8,0.7-2.8,0.8c1-0.6,1.8-1.6,2.2-2.7c-1,0.6-2,1-3.1,1.2c-0.9-1-2.2-1.6-3.6-1.6 c-2.7,0-4.9,2.2-4.9,4.9c0,0.4,0,0.8,0.1,1.1C7.7,8.1,4.1,6.1,1.7,3.1C1.2,3.9,1,4.7,1,5.6c0,1.7,0.9,3.2,2.2,4.1 C2.4,9.7,1.6,9.5,1,9.1c0,0,0,0,0,0.1c0,2.4,1.7,4.4,3.9,4.8c-0.4,0.1-0.8,0.2-1.3,0.2c-0.3,0-0.6,0-0.9-0.1c0.6,2,2.4,3.4,4.6,3.4 c-1.7,1.3-3.8,2.1-6.1,2.1c-0.4,0-0.8,0-1.2-0.1c2.2,1.4,4.8,2.2,7.5,2.2c9.1,0,14-7.5,14-14c0-0.2,0-0.4,0-0.6 C22.5,6.4,23.3,5.5,24,4.6z"/>
            </g>
        </symbol>
        <symbol id="icon-coin-dollar" viewBox="0 0 32 32">
            <path d="M15 2c-8.284 0-15 6.716-15 15s6.716 15 15 15c8.284 0 15-6.716 15-15s-6.716-15-15-15zM15 29c-6.627 0-12-5.373-12-12s5.373-12 12-12c6.627 0 12 5.373 12 12s-5.373 12-12 12zM16 16v-4h4v-2h-4v-2h-2v2h-4v8h4v4h-4v2h4v2h2v-2h4l-0-8h-4zM14 16h-2v-4h2v4zM18 22h-2v-4h2v4z"></path>
        </symbol>
        <symbol id="icon-info-circle" viewBox="0 0 32 32">
            <path d="M14 9.5c0-0.825 0.675-1.5 1.5-1.5h1c0.825 0 1.5 0.675 1.5 1.5v1c0 0.825-0.675 1.5-1.5 1.5h-1c-0.825 0-1.5-0.675-1.5-1.5v-1z"></path>
            <path d="M20 24h-8v-2h2v-6h-2v-2h6v8h2z"></path>
            <path d="M16 0c-8.837 0-16 7.163-16 16s7.163 16 16 16 16-7.163 16-16-7.163-16-16-16zM16 29c-7.18 0-13-5.82-13-13s5.82-13 13-13 13 5.82 13 13-5.82 13-13 13z"></path>
        </symbol>
        <symbol id="icon-logo-youtube" viewBox="0 0 24 24">
            <g class="nc-icon-wrapper">
                <path d="M23.8,7.2c0,0-0.2-1.7-1-2.4c-0.9-1-1.9-1-2.4-1C17,3.6,12,3.6,12,3.6h0c0,0-5,0-8.4,0.2 c-0.5,0.1-1.5,0.1-2.4,1c-0.7,0.7-1,2.4-1,2.4S0,9.1,0,11.1v1.8c0,1.9,0.2,3.9,0.2,3.9s0.2,1.7,1,2.4c0.9,1,2.1,0.9,2.6,1 c1.9,0.2,8.2,0.2,8.2,0.2s5,0,8.4-0.3c0.5-0.1,1.5-0.1,2.4-1c0.7-0.7,1-2.4,1-2.4s0.2-1.9,0.2-3.9v-1.8C24,9.1,23.8,7.2,23.8,7.2z M9.5,15.1l0-6.7l6.5,3.4L9.5,15.1z"/>
            </g>
        </symbol>
        <symbol id="icon-logo-pinterest" viewBox="0 0 24 24">
            <g class="nc-icon-wrapper">
                <path d="M12,0C5.4,0,0,5.4,0,12c0,5.1,3.2,9.4,7.6,11.2c-0.1-0.9-0.2-2.4,0-3.4c0.2-0.9,1.4-6,1.4-6S8.7,13,8.7,12 c0-1.7,1-2.9,2.2-2.9c1,0,1.5,0.8,1.5,1.7c0,1-0.7,2.6-1,4c-0.3,1.2,0.6,2.2,1.8,2.2c2.1,0,3.8-2.2,3.8-5.5c0-2.9-2.1-4.9-5-4.9 c-3.4,0-5.4,2.6-5.4,5.2c0,1,0.4,2.1,0.9,2.7c0.1,0.1,0.1,0.2,0.1,0.3c-0.1,0.4-0.3,1.2-0.3,1.4c-0.1,0.2-0.2,0.3-0.4,0.2 c-1.5-0.7-2.4-2.9-2.4-4.6c0-3.8,2.8-7.3,7.9-7.3c4.2,0,7.4,3,7.4,6.9c0,4.1-2.6,7.5-6.2,7.5c-1.2,0-2.4-0.6-2.8-1.4 c0,0-0.6,2.3-0.7,2.9c-0.3,1-1,2.3-1.5,3.1C9.6,23.8,10.8,24,12,24c6.6,0,12-5.4,12-12C24,5.4,18.6,0,12,0z"/>
            </g>
        </symbol>
        <symbol id="icon-compass-2" viewBox="0 0 64 64">
            <g class="nc-icon-wrapper" stroke-linecap="square" stroke-linejoin="miter" stroke="currentColor">
                <polyline points="45.611 26.362 51.092 12.908 37.638 18.389" fill="none" stroke-miterlimit="10" data-cap="butt" stroke-linecap="butt"/>
                <polyline points="37.638 45.611 51.092 51.092 45.611 37.638" fill="none" stroke-miterlimit="10" data-cap="butt" stroke-linecap="butt"/>
                <polyline points="18.389 37.638 12.908 51.092 26.362 45.611" fill="none" stroke-miterlimit="10" data-cap="butt" stroke-linecap="butt"/>
                <polyline points="26.362 18.389 12.908 12.908 18.389 26.362" fill="none" stroke-miterlimit="10" data-cap="butt" stroke-linecap="butt"/>
                <polygon points="40 40 59 32 40 24 32 5 24 24 5 32 24 40 32 59 40 40" fill="none" stroke="currentColor" stroke-miterlimit="10"/>
                <circle cx="32" cy="32" r="4" fill="none" stroke="currentColor" stroke-miterlimit="10"/>
            </g>
        </symbol>
        <symbol id="icon-clock" viewBox="0 0 32 32">
            <path d="M20.586 23.414l-6.586-6.586v-8.828h4v7.172l5.414 5.414zM16 0c-8.837 0-16 7.163-16 16s7.163 16 16 16 16-7.163 16-16-7.163-16-16-16zM16 28c-6.627 0-12-5.373-12-12s5.373-12 12-12c6.627 0 12 5.373 12 12s-5.373 12-12 12z"></path>
        </symbol>
        <symbol id="icon-m-time" viewBox="0 0 64 64">
            <title>m time</title>
            <g class="nc-icon-wrapper" stroke-linecap="square" stroke-linejoin="miter" stroke="currentColor">
                <polyline points="50 43 50 49 56 49" fill="none" stroke-miterlimit="10"/>
                <polyline points="34 56.8 22 52 2 58 2 10 22 4 42 12 62 6 62 35" fill="none" stroke="currentColor" stroke-miterlimit="10"/>
                <circle cx="50" cy="49" r="12" fill="none" stroke-miterlimit="10"/>
                <line x1="22" y1="4" x2="22" y2="52" fill="none" stroke="currentColor" stroke-miterlimit="10" data-cap="butt" stroke-linecap="butt"/>
                <line x1="42" y1="12" x2="42" y2="32" fill="none" stroke="currentColor" stroke-miterlimit="10" data-cap="butt" stroke-linecap="butt"/>
            </g>
        </symbol>
        <symbol id="icon-calendar-2" viewBox="0 0 32 32">
            <path d="M10 12h4v4h-4zM16 12h4v4h-4zM22 12h4v4h-4zM4 24h4v4h-4zM10 24h4v4h-4zM16 24h4v4h-4zM10 18h4v4h-4zM16 18h4v4h-4zM22 18h4v4h-4zM4 18h4v4h-4zM26 0v2h-4v-2h-14v2h-4v-2h-4v32h30v-32h-4zM28 30h-26v-22h26v22z"></path>
        </symbol>
        <symbol id="icon-boat-front-2" viewBox="0 0 32 32">
            <title>boat front</title>
            <g class="nc-icon-wrapper" stroke-linecap="square" stroke-linejoin="miter" stroke-width="2" stroke-miterlimit="10">
                <line fill="none" stroke="currentColor" x1="16" y1="13" x2="16" y2="25" stroke-linecap="butt"></line>
                <path fill="none" d="M1,27 c0,2.209,1.791,4,4,4c1.518,0,2.822-0.855,3.5-2.101C9.178,30.145,10.482,31,12,31s2.822-0.855,3.5-2.101 C16.178,30.145,17.482,31,19,31s2.822-0.855,3.5-2.101C23.178,30.145,24.482,31,26,31c2.209,0,4-1.791,4-4"></path>
                <polyline fill="none" points=" 13,8 13,1 19,1 19,8 "></polyline>
                <polyline fill="none" stroke="currentColor" points="7,18.25 7,8 25,8 25,18.25 " stroke-linecap="butt"></polyline>
                <polyline fill="none" stroke="currentColor" points="6,26 4,20 16,13 28,20 26,26 "></polyline>
            </g>
        </symbol>

        <symbol id="icon-pin-3" viewBox="0 0 64 64">
            <title>pin 3</title>
            <g class="nc-icon-wrapper" transform="translate(0.5 0.5)">
                <path fill="none" stroke="currentColor" d="M54,24.095 C54,39,32,61,32,61S10,39,10,24.095C10,10.113,21.369,2,32,2S54,10.113,54,24.095z"></path>
                <circle fill="none" cx="32" cy="24" r="8"></circle>
            </g>
        </symbol>


        <symbol id="icon-event-confirm" viewBox="0 0 48 48">
            <g class="nc-icon-wrapper" stroke-linecap="square" stroke-linejoin="miter" stroke="currentColor">
                <polyline points="32 37 34 39 38 35" fill="none" stroke-miterlimit="10"/>
                <circle cx="35" cy="37" r="9" fill="none" stroke-miterlimit="10"/>
                <line data-cap="butt" x1="45" y1="16" x2="3" y2="16" fill="none" stroke="currentColor" stroke-miterlimit="10" stroke-linecap="butt"/>
                <path d="M21,42H6a3,3,0,0,1-3-3V9A3,3,0,0,1,6,6H42a3,3,0,0,1,3,3V25.012" fill="none" stroke="currentColor" stroke-miterlimit="10"/>
                <line x1="13" y1="2" x2="13" y2="10" fill="none" stroke="currentColor" stroke-miterlimit="10"/>
                <line x1="35" y1="2" x2="35" y2="10" fill="none" stroke="currentColor" stroke-miterlimit="10"/>
            </g>
        </symbol>

        <symbol id="icon-bed-23" viewBox="0 0 64 64">
            <g class="nc-icon-wrapper" stroke-linecap="square" stroke-linejoin="miter" stroke="currentColor">
                <line fill="none" stroke-miterlimit="10" x1="2" y1="45" x2="2" y2="55"/>
                <line fill="none" stroke-miterlimit="10" x1="62" y1="45" x2="62" y2="55"/>
                <polyline data-cap="butt" fill="none" stroke="currentColor" stroke-miterlimit="10" points="56,19.5 56,9 8,9 8,19.5 " stroke-linecap="butt"/>
                <path fill="none" stroke-miterlimit="10" d="M6,31v-8 c0-2.2,1.8-4,4-4h18c2.2,0,4,1.8,4,4v8"/>
                <path fill="none" stroke-miterlimit="10" d="M32,31v-8 c0-2.2,1.8-4,4-4h18c2.2,0,4,1.8,4,4v8"/>
                <rect x="2" y="31" fill="none" stroke="currentColor" stroke-miterlimit="10" width="60" height="14"/>
            </g>
        </symbol>
        <symbol id="icon-bedroom" viewBox="0 0 48 48">
            <title>bedroom</title>
            <g class="nc-icon-wrapper" stroke-linecap="square" stroke-linejoin="miter" stroke="currentColor">
                <line x1="2" y1="41" x2="2" y2="7" fill="none" stroke="currentColor" stroke-miterlimit="10"/>
                <line x1="46" y1="41" x2="46" y2="27" fill="none" stroke="currentColor" stroke-miterlimit="10"/>
                <line x1="2" y1="35" x2="46" y2="35" fill="none" stroke="currentColor" stroke-miterlimit="10"/>
                <line x1="2" y1="27" x2="46" y2="27" fill="none" stroke="currentColor" stroke-miterlimit="10"/>
                <circle cx="11" cy="18" r="4" fill="none" stroke-miterlimit="10"/>
                <path d="M20,15H42a4,4,0,0,1,4,4v3a0,0,0,0,1,0,0H20a0,0,0,0,1,0,0V15A0,0,0,0,1,20,15Z" fill="none" stroke-miterlimit="10"/>
            </g>
        </symbol>

        <symbol id="icon-c-warning" viewBox="0 0 24 24">
            <g class="nc-icon-wrapper" stroke-linecap="square" stroke-linejoin="miter" stroke="currentColor">
                <circle cx="12" cy="12" r="11" fill="none" stroke="currentColor" stroke-miterlimit="10"/>
                <line x1="12" y1="7" x2="12" y2="13" fill="none" stroke-miterlimit="10"/>
                <circle data-stroke="none" cx="12" cy="17" r="1" stroke="none" fill="currentColor"/>
            </g>
        </symbol>

        <symbol id="icon-globe" viewBox="0 0 64 64">
            <g class="nc-icon-wrapper" stroke-linecap="square" stroke-linejoin="miter" stroke="currentColor">
                <line data-cap="butt" fill="none" stroke-miterlimit="10" x1="32" y1="2" x2="32" y2="62" stroke-linecap="butt"/>
                <line data-cap="butt" fill="none" stroke-miterlimit="10" x1="2" y1="32" x2="62" y2="32" stroke-linecap="butt"/>
                <line data-cap="butt" fill="none" stroke-miterlimit="10" x1="5.46" y1="18" x2="58.539" y2="18" stroke-linecap="butt"/>
                <line data-cap="butt" fill="none" stroke-miterlimit="10" x1="5.461" y1="46" x2="58.539" y2="46" stroke-linecap="butt"/>
                <ellipse fill="none" stroke-miterlimit="10" cx="32" cy="32" rx="17" ry="30"/>
                <circle fill="none" stroke="currentColor" stroke-miterlimit="10" cx="32" cy="32" r="30"/>
            </g>
        </symbol>

        <symbol id="icon-money-bag" viewBox="0 0 64 64">
            <g class="nc-icon-wrapper" stroke-linecap="square" stroke-linejoin="miter" stroke="currentColor">
                <line x1="32" y1="27" x2="32" y2="53" fill="none" stroke-miterlimit="10"/>
                <path d="M38,31.41c-2.912-1.6-12.085-2.8-12.085,2.719,0,6.6,11.648,4.271,11.648,10.095s-7.571,5.387-12.813,3.493" fill="none" stroke-miterlimit="10"/>
                <path d="M39.059,18H24.941S8,35.875,8,46.875C8,55.125,14,62,32,62s24-6.875,24-15.125C56,35.875,39.059,18,39.059,18Z" fill="none" stroke="currentColor" stroke-miterlimit="10"/>
                <polyline data-cap="butt" points="39 18 44 8 38 6" fill="none" stroke="currentColor" stroke-miterlimit="10" stroke-linecap="butt"/>
                <polyline data-cap="butt" points="26 6 20 8 25 18" fill="none" stroke="currentColor" stroke-miterlimit="10" stroke-linecap="butt"/>
                <polyline points="28 10 24 2 40 2 36 10" fill="none" stroke="currentColor" stroke-miterlimit="10"/>
            </g>
        </symbol>

        <symbol id="icon-laugh-17" viewBox="0 0 64 64">
            <g class="nc-icon-wrapper" stroke-linecap="square" stroke-linejoin="miter" stroke="currentColor">
                <path d="M48,36a16,16,0,0,1-32,0Z" fill="none" stroke-miterlimit="10"/>
                <path d="M24,28a4,4,0,0,0-8,0" fill="none" stroke-miterlimit="10"/>
                <path d="M48,28a4,4,0,0,0-8,0" fill="none" stroke-miterlimit="10"/>
                <circle cx="32" cy="32" r="28" fill="none" stroke="currentColor" stroke-miterlimit="10"/>
            </g>
        </symbol>

        <symbol id="icon-quote" viewBox="0 0 64 64">
            <g class="nc-icon-wrapper">
                <path d="M25.50195,52.27904c-5.57094,5.17976-15.05833,3.8102-19.50043-1.67434 c-5.25741-6.47749-6.30715-18.75427,2.85195-29.73619c4.54303-5.44717,10.01811-9.5772,16.41965-12.39008l2.95241,4.75511 c-9.10641,4.4128-15.91278,10.39585-16.8773,20.42689c4.10871,0,7.51761-0.14883,10.55389,0.93763 c3.45683,1.23695,5.55654,3.53097,6.41829,6.16155C29.68742,44.87838,29.02475,49.00361,25.50195,52.27904z M58.51985,52.27904 c-5.57094,5.17976-15.05833,3.8102-19.50043-1.67434c-5.25741-6.47749-6.30716-18.75427,2.85195-29.73619 c4.54303-5.44717,10.0181-9.5772,16.41965-12.39008l2.95241,4.75511c-9.10641,4.4128-15.91278,10.39585-16.8773,20.42689 c4.10871,0,7.51761-0.14883,10.55389,0.93763c3.45683,1.23695,5.55654,3.53097,6.41829,6.16155 C62.70531,44.87838,62.04264,49.00361,58.51985,52.27904z"/>
            </g>
        </symbol>

        <symbol id="icon-letter" viewBox="0 0 64 64">
            <g class="nc-icon-wrapper" stroke-linecap="square" stroke-linejoin="miter">
                <path data-color="color-2" d="M3,25V51a5,5,0,0,0,5,5H56a5,5,0,0,0,5-5V25" fill="none" stroke-miterlimit="10"/>
                <path d="M61,18V13a5,5,0,0,0-5-5H8a5,5,0,0,0-5,5v5L32,34Z" fill="none" stroke="currentColor" stroke-miterlimit="10"/>
            </g>
        </symbol>
        <symbol id="icon-ic_mail_outline_24px" viewBox="0 0 24 24">
            <g class="nc-icon-wrapper" stroke="none" fill="currentColor">
                <path d="M20 4H4c-1.1 0-1.99.9-1.99 2L2 18c0 1.1.9 2 2 2h16c1.1 0 2-.9 2-2V6c0-1.1-.9-2-2-2zm0 14H4V8l8 5 8-5v10zm-8-7L4 6h16l-8 5z"/>
            </g>
        </symbol>
        <symbol id="icon-phone-call" viewBox="0 0 48 48">
            <g class="nc-icon-wrapper" stroke-linecap="square" stroke-linejoin="miter">
                <path data-color="color-2" d="M28,2A18,18,0,0,1,46,20" fill="none" stroke-miterlimit="10"/>
                <path data-color="color-2" d="M28,10A10,10,0,0,1,38,20" fill="none" stroke-miterlimit="10"/>
                <path d="M31.041,28.94l-3.423,4.279A36.116,36.116,0,0,1,14.782,20.384l4.279-3.423a2.908,2.908,0,0,0,.84-3.45L16,4.728a2.908,2.908,0,0,0-3.39-1.635L5.186,5.019A2.925,2.925,0,0,0,3.028,8.25,43.142,43.142,0,0,0,39.751,44.973a2.925,2.925,0,0,0,3.23-2.158l1.926-7.425A2.91,2.91,0,0,0,43.273,32l-8.782-3.9A2.907,2.907,0,0,0,31.041,28.94Z" fill="none" stroke="currentColor" stroke-miterlimit="10"/>
            </g>
        </symbol>

        <symbol id="icon-headset" viewBox="0 0 32 32">
            <title>headset</title>
            <g class="nc-icon-wrapper">
                <path fill="currentColor" d="M16,0C8.28,0,2,6.28,2,14v9c0,2.206,1.794,4,4,4h3c0.552,0,1-0.448,1-1V16c0-0.552-0.448-1-1-1H4v-1 C4,7.383,9.383,2,16,2s12,5.383,12,12v1h-5c-0.552,0-1,0.448-1,1v10c0,0.552,0.448,1,1,1h3c0.732,0,1.409-0.212,2-0.556V27 c0,1.654-1.346,3-3,3h-6c-0.552,0-1,0.448-1,1s0.448,1,1,1h6c2.757,0,5-2.243,5-5V14C30,6.28,23.72,0,16,0z"/>
            </g>
        </symbol>

        <symbol id="icon-ic_translate_24px" viewBox="0 0 24 24">
            <title>ic translate 24px</title>
            <g class="nc-icon-wrapper">
                <path d="M12.87 15.07l-2.54-2.51.03-.03c1.74-1.94 2.98-4.17 3.71-6.53H17V4h-7V2H8v2H1v1.99h11.17C11.5 7.92 10.44 9.75 9 11.35 8.07 10.32 7.3 9.19 6.69 8h-2c.73 1.63 1.73 3.17 2.98 4.56l-5.09 5.02L4 19l5-5 3.11 3.11.76-2.04zM18.5 10h-2L12 22h2l1.12-3h4.75L21 22h2l-4.5-12zm-2.62 7l1.62-4.33L19.12 17h-3.24z" fill="currentColor" stroke="none"></path>
            </g>
        </symbol>
    </defs>

</svg>
